<svg width="19" height="11" viewBox="0 0 19 11" fill="none" xmlns="http://www.w3.org/2000/svg">
<path fill-rule="evenodd" clip-rule="evenodd" d="M0.712668 2.32453C0.419163 2.32453 0.181396 2.08534 0.181396 1.79008C0.181396 1.49553 0.419163 1.25563 0.712668 1.25563H5.4949C5.78841 1.25563 6.02618 1.49553 6.02618 1.79008C6.02618 2.08534 5.78841 2.32453 5.4949 2.32453H0.712668ZM2.83783 9.80687C2.54432 9.80687 2.30655 9.56697 2.30655 9.27242C2.30655 8.97716 2.54432 8.73797 2.83783 8.73797H5.4949C5.78841 8.73797 6.02618 8.97716 6.02618 9.27242C6.02618 9.56697 5.78841 9.80687 5.4949 9.80687H2.83783ZM1.77528 6.0657C1.48178 6.0657 1.24401 5.82651 1.24401 5.53125C1.24401 5.23599 1.48178 4.9968 1.77528 4.9968H5.49494C5.78844 4.9968 6.02621 5.23599 6.02621 5.53125C6.02621 5.82651 5.78844 6.0657 5.49494 6.0657H1.77528ZM7.61919 5.53125C7.61919 2.57938 9.99758 0.1875 12.9319 0.1875C15.8655 0.1875 18.2439 2.57938 18.2439 5.53125C18.2439 8.48312 15.8662 10.875 12.9319 10.875C9.99758 10.875 7.61919 8.48312 7.61919 5.53125ZM8.68174 5.53125C8.68174 7.8926 10.5846 9.8068 12.9319 9.8068C15.2792 9.8068 17.1813 7.8926 17.1813 5.53125C17.1813 3.1699 15.2792 1.2557 12.9319 1.2557C10.5838 1.2557 8.68174 3.1699 8.68174 5.53125ZM13.4633 3.66103V5.5774L14.6352 6.75632C14.8426 6.96498 14.8426 7.30354 14.6352 7.51222C14.4277 7.72088 14.0919 7.72088 13.8845 7.51222L12.5559 6.17644C12.4565 6.07637 12.4007 5.94009 12.4007 5.79815V3.66101C12.4007 3.36575 12.6385 3.12656 12.932 3.12656C13.2248 3.12656 13.4633 3.36575 13.4633 3.66101L13.4633 3.66103Z" fill="black"/>
</svg>
