<svg width="13" height="13" viewBox="0 0 13 13" fill="none" xmlns="http://www.w3.org/2000/svg">
<path fill-rule="evenodd" clip-rule="evenodd" d="M0.352202 12.6706C0.572164 12.8902 0.85829 13 1.12207 13C1.38585 13 1.69432 12.8902 1.89193 12.6706L6.51113 8.05939L11.1303 12.6706C11.3503 12.8902 11.6364 13 11.9002 13C12.164 13 12.4724 12.8902 12.6701 12.6706C13.11 12.2315 13.11 11.5504 12.6701 11.1112L8.05086 6.5L12.6701 1.88876C13.11 1.4496 13.11 0.76854 12.6701 0.329374C12.2301 -0.109791 11.5479 -0.109791 11.108 0.329374L6.48878 4.94061L1.89202 0.373949C1.4521 -0.0652161 0.769866 -0.0652161 0.329942 0.373949C-0.109981 0.813115 -0.109981 1.49417 0.329942 1.93334L4.94914 6.54458L0.352379 11.1334C-0.0875448 11.5503 -0.0875448 12.2536 0.352379 12.6705L0.352202 12.6706Z" fill="#090637"/>
</svg>
