<svg width="40" height="40" viewBox="0 0 40 40" fill="none" xmlns="http://www.w3.org/2000/svg">
<path d="M1.01177 2.19718C5.1091 1.17194 8.15849 0.502938 10.1762 0.188476C11.5338 -0.0231189 12.6348 0.159495 13.9185 0.691967C14.1349 0.781707 14.349 0.877122 14.641 1.01201C14.7187 1.0479 14.9904 1.1741 14.9907 1.17425C15.1289 1.23833 15.2348 1.287 15.3388 1.33401C16.8783 2.02988 18.0861 2.33941 19.8903 2.34317C21.7094 2.34696 23.0517 2.03509 24.893 1.32463C25.0583 1.26085 25.8 0.968577 26.0008 0.891586C26.4388 0.723655 26.7923 0.598992 27.1414 0.493699C28.2978 0.144891 29.3361 0.0429443 30.4644 0.232207C32.3378 0.546454 35.1078 1.20297 38.7908 2.20347L39.6594 2.43943L39.665 3.3046C39.7124 10.649 38.2409 17.184 35.2437 22.8955C32.2518 28.5967 27.5174 33.9008 21.0541 38.8113L20.3258 39.3646L19.5838 38.8284C12.7402 33.8835 7.75593 28.581 4.64516 22.9142C1.52606 17.2323 0.017987 10.6878 0.113521 3.29746L0.124876 2.41909L1.01177 2.19718Z" fill="#090637"/>
<path d="M6.77274 21.8416C9.5947 26.9822 14.0958 31.8521 20.2886 36.4453C26.1176 31.8933 30.3828 27.0306 33.096 21.8603C35.7988 16.7101 37.1885 10.8221 37.2593 4.1839C34.0852 3.33583 31.6779 2.77459 30.0499 2.5015C29.3342 2.38145 28.6759 2.44609 27.8632 2.69122C27.581 2.77634 27.2803 2.88237 26.8938 3.03053C26.7065 3.10236 25.9681 3.39335 25.7909 3.46172C23.687 4.2735 22.06 4.65149 19.8851 4.64696C17.6903 4.64239 16.1488 4.24732 14.3133 3.41767C14.2009 3.36687 14.0884 3.31517 13.9437 3.24806C13.9412 3.24691 13.6721 3.12189 13.5972 3.08733C13.3321 2.96485 13.1442 2.88111 12.9636 2.80623C12.0723 2.4365 11.4212 2.32851 10.5621 2.4624C8.78106 2.73998 6.09407 3.32093 2.51392 4.20392C2.54832 10.8618 3.97011 16.7361 6.77274 21.8416Z" fill="white"/>
<path fill-rule="evenodd" clip-rule="evenodd" d="M28.5942 23.0383H23.175C23.175 23.0383 19.9188 19.341 19.7439 19.119C18.9366 20.1464 16.4843 23.0383 16.4843 23.0383H11.1459L17.0797 16.1795L11.4183 9.85339H16.8072L28.5942 23.0383Z" fill="#090637"/>
<path fill-rule="evenodd" clip-rule="evenodd" d="M20.5599 12.5034L22.7168 9.84802H27.9607L23.1915 15.4537L20.5599 12.5034Z" fill="#27AEE4"/>
</svg>
