<svg width="13" height="13" viewBox="0 0 13 13" fill="none" xmlns="http://www.w3.org/2000/svg">
<path fill-rule="evenodd" clip-rule="evenodd" d="M12.4353 0.0545293C12.4167 0.0551492 12.3981 0.0570056 12.3802 0.0594836H8.48177C8.34925 0.0576255 8.22106 0.109026 8.12692 0.201919C8.03217 0.29543 7.97891 0.42238 7.97891 0.554917C7.97891 0.687453 8.03217 0.814394 8.12692 0.907914C8.22105 1.00081 8.34924 1.05221 8.48177 1.05035H11.2493L5.15932 7.14037H5.1587C5.06271 7.23265 5.00822 7.3596 5.00698 7.49275C5.00574 7.6259 5.05776 7.75409 5.15189 7.84761C5.24602 7.94174 5.37421 7.99438 5.50674 7.99314C5.63989 7.9919 5.76684 7.93678 5.85912 7.84141L11.9491 1.75139V4.51896L11.9498 4.51834C11.9479 4.65087 11.9993 4.77906 12.0922 4.87319C12.1851 4.96795 12.3127 5.02058 12.4452 5.02058C12.5777 5.02058 12.7047 4.96795 12.7976 4.87319C12.8911 4.77906 12.9425 4.65088 12.9406 4.51834V0.618027C12.9604 0.473115 12.9159 0.327588 12.8186 0.219212C12.7214 0.110838 12.5808 0.0501489 12.4353 0.054477L12.4353 0.0545293Z" fill="#6D7278"/>
<path fill-rule="evenodd" clip-rule="evenodd" d="M5.50915 2.04116C4.27244 2.04116 3.338 2.0393 2.59351 2.12353C1.84902 2.20775 1.25276 2.38486 0.826617 2.81154C0.400471 3.23823 0.225288 3.83336 0.141692 4.5778C0.058089 5.32218 0.0593272 6.25607 0.0593272 7.49154C0.0593272 8.72702 0.0580887 9.66159 0.14355 10.4059C0.229011 11.1503 0.407989 11.7454 0.835293 12.1722C1.2626 12.5982 1.85773 12.7754 2.60155 12.859C3.34531 12.9432 4.27728 12.9413 5.50911 12.9413C6.74094 12.9413 7.67282 12.9419 8.41667 12.8571C9.16052 12.7723 9.7568 12.5945 10.1836 12.1684C10.6109 11.7418 10.788 11.1466 10.8734 10.4022C10.9589 9.65782 10.9589 8.72456 10.9589 7.49162V7.491C10.9608 7.35847 10.9094 7.2309 10.8165 7.13615C10.723 7.04202 10.596 6.98876 10.4635 6.98876C10.3309 6.98876 10.204 7.04202 10.1105 7.13615C10.0176 7.2309 9.96619 7.35846 9.96804 7.491C9.96804 8.72337 9.96371 9.64234 9.88939 10.2895C9.81508 10.9366 9.67884 11.2717 9.48314 11.4674C9.28745 11.6631 8.95241 11.7993 8.30527 11.873C7.65812 11.9467 6.73972 11.9504 5.50852 11.9504C4.27733 11.9504 3.35892 11.9473 2.71178 11.8742C2.06463 11.8012 1.7296 11.6655 1.5339 11.4705C1.3382 11.2754 1.20134 10.9403 1.12765 10.2926C1.05333 9.64481 1.049 8.72579 1.049 7.49156C1.049 6.2567 1.05148 5.33704 1.12455 4.68926C1.19701 4.0415 1.33325 3.70708 1.52709 3.51262C1.72093 3.31816 2.05595 3.18255 2.70374 3.10884C3.3515 3.03577 4.27176 3.03267 5.50793 3.03267L5.50917 3.03205C5.6417 3.03391 5.76988 2.98251 5.86402 2.88962C5.95877 2.79611 6.01141 2.66916 6.01141 2.53662C6.01141 2.40408 5.95877 2.27714 5.86402 2.18362C5.76989 2.09073 5.6417 2.03933 5.50917 2.04119L5.50915 2.04116Z" fill="#6D7278"/>
</svg>
