<svg width="16" height="16" viewBox="0 0 16 16" fill="none" xmlns="http://www.w3.org/2000/svg">
<path fill-rule="evenodd" clip-rule="evenodd" d="M5.55154 7.22425C6.17578 8.45127 6.92552 9.19646 8.15254 9.82525L9.19684 9.0365C9.31388 8.9188 9.4875 8.87979 9.63901 8.93181C10.1247 9.09242 10.6495 9.1789 11.1866 9.1789C11.4252 9.1789 11.6203 9.37463 11.6203 9.61262V11.1258C11.6203 11.3644 11.4252 11.5595 11.1866 11.5595C7.11604 11.5595 3.81732 8.2601 3.81732 4.18954C3.81732 3.95089 4.0124 3.75647 4.25104 3.75647H5.76807C6.00606 3.75647 6.20179 3.95089 6.20179 4.18954C6.20179 4.73184 6.28827 5.25139 6.44888 5.73713C6.49635 5.88864 6.46124 6.05835 6.34029 6.1793L5.55154 7.22425Z" stroke="black" stroke-width="0.765" stroke-linecap="round" stroke-linejoin="round"/>
<path d="M11.6204 10.3196C12.8597 10.2384 13.7779 10.7807 13.246 11.8841C12.413 13.6112 10.076 14.8103 7.71885 14.8103C3.76858 14.8103 0.566101 11.6078 0.566101 7.65751C0.566101 3.70724 3.76858 0.504761 7.71885 0.504761C11.6691 0.504761 14.8716 3.70724 14.8716 7.65751" stroke="black" stroke-width="0.765" stroke-linecap="round" stroke-linejoin="round"/>
</svg>
