<svg width="15" height="16" viewBox="0 0 15 16" fill="none" xmlns="http://www.w3.org/2000/svg">
<path d="M4.73114 1.48469L4.73115 1.48469C4.79419 1.51462 4.84402 1.53807 4.89417 1.56127C5.73519 1.95052 6.46113 2.1416 7.47629 2.14376C8.48067 2.1459 9.23671 1.96366 10.181 1.5906C10.2233 1.57388 10.3097 1.53916 10.3989 1.50332C10.5014 1.4621 10.6077 1.4194 10.6548 1.4009C10.8157 1.33773 10.934 1.29526 11.0411 1.26219C11.341 1.16958 11.5531 1.15317 11.7781 1.19181C12.4012 1.29883 13.311 1.51203 14.5097 1.83455C14.4388 4.56231 13.8556 6.97613 12.7723 9.08995C11.6802 11.2208 9.97807 13.2454 7.6438 15.1586C5.1561 13.2244 3.35705 11.1938 2.22084 9.07447C1.09992 6.98365 0.503348 4.58107 0.444438 1.85066C1.81375 1.50982 2.84268 1.28569 3.53356 1.17543C3.8053 1.13206 4.00145 1.15962 4.32602 1.29747C4.39591 1.32715 4.47077 1.36123 4.58263 1.41413L4.73114 1.48469Z" stroke="black" stroke-width="0.87975"/>
<path d="M5.8161 7.52323L7.19812 8.91231L9.97048 6.13416" stroke="black" stroke-width="0.87975" stroke-linecap="round" stroke-linejoin="round"/>
</svg>
